<!--?xml version="1.0" encoding="utf-8"?-->
<!-- Generator: Adobe Illustrator 18.1.1, SVG Export Plug-In . SVG Version: 6.00 Build 0)  -->

<svg version="1.1" id="_x32_" xmlns="http://www.w3.org/2000/svg" xmlns:xlink="http://www.w3.org/1999/xlink" x="0px" y="0px" viewBox="0 0 512 512" style="width: 256px; height: 256px; opacity: 1;" xml:space="preserve">
<style type="text/css">
	.st0{fill:#4B4B4B;}
</style>
<g>
	<path class="st0" d="M341.954,106.655l66.894-66.895L369.078,0l-49.492,49.492c-35.118,35.118-92.054,35.118-127.181,0L142.922,0
		l-39.77,39.76l66.894,66.895C217.507,154.134,294.474,154.134,341.954,106.655z" style="fill: rgb(75, 75, 75);"></path>
	<path class="st0" d="M462.508,192.405L512,142.922l-39.76-39.77l-66.904,66.895c-47.47,47.48-47.47,124.428,0,171.907
		l66.904,66.894l39.76-39.77l-49.492-49.492C427.39,284.468,427.39,227.533,462.508,192.405z" style="fill: rgb(75, 75, 75);"></path>
	<path class="st0" d="M170.046,405.335l-66.894,66.895l39.77,39.77l49.482-49.492c35.128-35.118,92.063-35.118,127.181,0
		L369.078,512l39.77-39.77l-66.894-66.895C294.474,357.865,217.507,357.865,170.046,405.335z" style="fill: rgb(75, 75, 75);"></path>
	<path class="st0" d="M106.655,170.037L39.76,103.152L0,142.922l49.492,49.483c35.118,35.128,35.118,92.063,0,127.181L0,369.078
		l39.76,39.77l66.895-66.894C154.135,294.474,154.135,217.526,106.655,170.037z" style="fill: rgb(75, 75, 75);"></path>
</g>
</svg>
