<?xml version='1.0' encoding='utf-8'?>
<svg xmlns="http://www.w3.org/2000/svg" version="1.1" id="_x34_" x="0px" y="0px" viewBox="0 0 508.4 800" xml:space="preserve" preserveAspectRatio="none"><path d="M43.5,270.5c-3.4-1.2-12.8-4.6-16.2-5.6c66.7-6,80.4-10.2,39.4-27.8c54.7,0,44.5-3.5-33.4-47.3   c95.7,24.2,84.5,12.3,46-26.4c45.1,18,48.6,19.4-13.4-60.2c82.7,73.5,95.2,66,76.5,21.4c36.6,36,26,27.7,6-50.3   c43.4,83.7,60,77.3,60,22.6c18.8,45,30.7,38.6,49.7-77c5.5,98,4.1,112,17.6,74.2c0,54.7,16.3,58.5,67.7-25.8   c-26.8,85.7-38.1,91.8,0.7,53.3c-18.7,44.6,3.6,29,87.7-39.8c-73.5,82.7-76.2,101.1-31.7,82.3c-43.7,41.6-24.6,41.1,51.9,10.5   c-77.9,54-60.9,53.8-21.3,50.2c-48.6,25.7-34.8,30.2,51.6,10.2c-81.1,31.2-93.1,65.1-49.3,55.4c-44.5,31.6-36.1,35.7,58.7,12.6   c-80.6,41.7-97.5,51-43.8,59.6c-47.1,10.8-40.7,29.8,48,42.8c-79.1,10.5-99,13-51.4,16.3c-51.9,17-37.5,20.6,49.4,35.6   c-94.3,0.7-84.3,14.4-36.1,22.8c0,0-21.1-0.8-34.6,6.4c-13.4,7.3,14.6,30.5,59,55c-71.1-18.3-101.7-15.2-57.2,3.9   c-54.7,0-36.9,5.6,31.4,50.3c-89.5-29.7-81-15.3-42.5,23.4c-44.6-18.7-49.3-18.7,16.1,58.7c-78.2-65.3-99.9-68.4-76.9-19.5   c-34.1-33.4-25.8-25.2-8.8,49.7c-47.3-80.9-57.8-73.5-56.4-19.8c-24.4-44.5-33.6-19.4-52,91.7c-4.3-103.6-16-132-28.7-95.6   c0.3-53.8-14.8-45.2-59.1,35.5c29.7-89.5,18.5-86.6-5.1-56.3c14.4-42.1,10.3-36.2-73.3,30.2c67.5-81,73.3-95.7,21.6-72.6   c44.1-43,31.3-48.7-58.6-21.7c76.4-43.4,100.1-56,37.6-50.2c49.5-25,32.9-29.9-57.5-12.3c39.8-19.9,59.3-31.4,69.8-39.4   c12.5-9.9,0-11.4-25.7-10.1c28.4-11.7,46.7-18.3,38.3-23.5c-8.4-5.2-26.3-5.7-78.4-1.4c83.4-26.4,103.2-28.6,53.1-48.4   c40.7-10.8,33-15.6-51.7-33.2c27.2-6.3,61.1-12,66-19c8.1-11.4-26-15.5-37.7-16.6c35.2-7.5,20.5-14.8-19.5-18.6   c40-11.2,60.7-26.2,53.3-36.8C75.7,283.4,62.5,277,43.5,270.5z" fill="#ffffff" /></svg>