<?xml version='1.0' encoding='utf-8'?>
<svg xmlns="http://www.w3.org/2000/svg" version="1.1" id="_x34_" x="0px" y="0px" viewBox="0 0 625.4 800" xml:space="preserve" preserveAspectRatio="none"><path d="M283.9,676.7C208,661,59,727.1,35.7,777.6C153.6,573,115.7,455.2,62.8,432.2c108-26.6-28.4-250.6-44.7-262.8   c200.5,136.8,172-21.7,149-82.6c8.9,10.4,17.5,19.5,25.8,27.5c38.7,36.9,95.7,46.9,144.7,25.6c53-23.1,111.2-61.2,147-106.3   c-21.7,128.5-19.5,146.7,38.7,154.8c-56.9,73.1,2.7,116.5,74.5,102.9c-92.1,82.6-96.6,173.6-50.1,231.6   c-54.3,50,4.1,176.1,19,193.7c-88-89.4-207.2-39.3-230.3,9.5C325.6,697,309.8,682,283.9,676.7z" fill="#ffffff" /></svg>