<?xml version='1.0' encoding='utf-8'?>
<svg xmlns="http://www.w3.org/2000/svg" version="1.1" id="_x31__1_" x="0px" y="0px" viewBox="0 0 513.7 800" xml:space="preserve" preserveAspectRatio="none"><path d="M325.5,679.6c15.2-2,43.7,26,43.7,26c-8.1-44.3,5.4-55.6,27-48.5c21.6,7.2,37.5,16.7,49.6,25.8   c-13.6-13.4-34.8-58.3-28.6-76.3c6.2-18,44.5-5.8,44.5-5.8c-44.4-40.8-44.3-78.2-23.6-80c-8-20.4,12.8-37.4,13.9-34.6   c1.1,2.8-23-17.8-20.7-66.7c2.3-48.9,21.6-45.1,21.6-45.1s-15-15.3-12-39.5c2.4-19.5,11.8-40.8,11.8-40.8s-20.6,8.7-23.5-10.3   c-2.9-19,37.2-77.5,37.2-77.5s-24.9,17.5-39.8,7.8c-14.8-9.8,3.9-35.6,4.7-38.5c-3.4,0-23.6,0.3-30-20.6   c-6.5-21.2,25.5-81.2,25.5-81.2s-47,49.9-60.8,42c-13.8-7.9-8.8-22.5-8.8-22.5s-15.5,15.1-33.8,12c-18.3-3.1-18.6-19.3-18.6-19.3   s-15.7,14.3-25.5,10.9c-9.7-3.3-24.7-45.3-24.7-45.3s-14.2,27.2-22.3,37.2c-8.1,10-28.5,18.5-53.7,12.2   c-25.2-6.4-23.3-7.6-32.6-20.9c0,0,2.3,26.7-13.7,32.3c-16,5.6-48-21.5-48-21.5s21.2,40.1,16.2,55.6c-5,15.6-33,10.3-33,10.3   S83,176,83.2,198.9c0.2,23-56.3,22-53.4,22.8c2.9,0.8,37.5,41.2,44,57.1c6.5,15.9-23.5,27-20.6,26.9c2.9-0.1,13,6.5,16.6,25.4   c4.7,24.8-32.6,38.5-32.6,38.5c36.2,14.4,57.9,26.7,25.7,51.3c25.5,13.1-4.5,39.1-20.6,47.9c43.7,11.2,46.1,88.6,18.1,120.6   c32.8-4.7,5.7,36,2,38c36.6-14.5-2.6,73-11.8,79.1c61.8-43.7,89.9-33.3,82.9,19.8c30.8-34.5,35.4-29.9,46.8-11.7   c25.1-27.4,45.6-22.8,60.4-14.8c14.8,8,25.1,46.7,25.1,46.7c13.7-49,17.1-46.7,33.1-55.9C314.9,681.7,325.5,679.6,325.5,679.6z" fill="#ffffff" /></svg>