<?xml version='1.0' encoding='utf-8'?>
<svg xmlns="http://www.w3.org/2000/svg" version="1.1" id="_x31__1_" x="0px" y="0px" viewBox="0 0 447.451 800" xml:space="preserve" preserveAspectRatio="none"><path d="M211.899,36.332c-76.123,32.363-81.614,126.186-78.126,159.818c0,0,1.279,12.333,2.56,24.67   c-0.717,10.229-17.887,3.819-25.423-8.404c-14.537-1.958-33.587,0.234-48.271,18.725c-27.438,34.55-41.664,128.039-36.583,246.934   c5.081,118.894,22.356,250.999,95.521,282.501c63.05,27.146,123.837,14.298,158.298-26.191c-4.388-14.8-0.511-26.431,13.087-19.008   c25.251,26.941,88.105,53.852,129.407,49.263c-16.843-16.033-36.701-37.684-50.204-62.905   c73.576-51.925,40.042-304.956,38.01-451.288c-2.032-146.331-36.583-234.739-154.46-224.578   C238.995,27.313,224.482,30.982,211.899,36.332z" fill="#ffffff" /></svg>