<?xml version='1.0' encoding='utf-8'?>
<svg xmlns="http://www.w3.org/2000/svg" version="1.1" id="_x34_" x="0px" y="0px" viewBox="0 0 508.4 800" xml:space="preserve" preserveAspectRatio="none"><path d="M237.8,736.3c-3.7-70-12-78.4-18-78.4c-3.3,0-6.4,2.9-9.6,9c-0.3-7.3-0.9-12.9-1.8-17.2    c-1.7-7.6-4.6-11.3-8.9-11.3c-7.7,0-18.3,13.3-35.9,45.2c10.7-35.6,9.6-44.1,7.3-47.3c-0.9-1.3-2.3-2-3.8-2    c-3.3,0-7.8,3.3-14.4,10.7c3.2-9.1,3.8-13.8,2.1-16.3c-0.9-1.3-2.3-2-4-2c-6.2,0-19.2,9.3-52.8,38.6    c10.4-12.3,18.4-22.4,24.2-30.5c9.8-13.8,13.2-22,11.2-26.6c-0.8-1.7-2.6-3.7-7.3-3.7c-3.7,0-8.8,1.2-15.9,3.8    c12.2-13.3,16.5-21.4,14.3-26.8c-1.5-3.6-5.5-5.3-12.4-5.3c-9.2,0-24.1,3.1-45.3,9.4c45.4-24.4,53.6-32.6,52.1-38.6    c-1.1-4.3-7.3-6.2-20.8-6.2c-1.2,0-2.4,0-3.7,0c10.5-6.1,15-11,14-15.2c-0.9-3.9-6-5.7-16-5.7c-10.3,0-25.9,2-45.4,5.9    c22-10.5,34.8-20.6,42.9-27l0.3-0.3c1.2-1,2.4-1.9,3.4-2.7c3.6-2.8,7.6-6.6,6.3-10.3c-1.2-3.4-6-4.9-16.3-5.1    c17.9-7.3,26.1-11.1,26.5-15.9c0.2-2-0.9-3.7-3.3-5.2c-5.7-3.6-14.1-5-28.8-5c-6,0-13.2,0.2-22,0.7c39.8-10.3,54.3-15.3,54.8-23    c0.3-5.2-5.9-9.9-23.4-17.2c13.8-4.3,19.6-8.3,19.4-13.1c-0.3-5.6-8.3-12.1-61.6-21.1c20.5-2.7,41.9-7.8,45-17.4    c1.1-3.5,0.7-6.8-1.2-9.7c-3.6-5.4-11.8-8.5-19.6-10.2c7.5-2.4,10.7-4.9,10.6-8.2c-0.2-3.2-3.6-7.7-29.7-11.1    c18-5.8,37.7-14.4,41.5-25c1.2-3.4,0.7-6.6-1.4-9.6c-6.7-9.6-34.7-19.6-41-21.8c37.8-3.7,49.9-6.9,50.9-13.2    c0.7-4.1-3.7-8.1-15.2-13.7c19.6-0.3,25.9-1.9,26.9-6.2c1.4-5.7-7.7-12.3-47.2-33.1c18.3,5.4,31.1,8,38.8,8c6,0,9.5-1.5,10.8-4.7    c2.2-5.3-2.8-13.8-17.8-29.7c11.2,4.6,18,6.9,22.2,6.9c3.2,0,4.6-1.5,5.1-2.7c2-4.5-2.5-13.4-31-46.5    c27.2,22.6,44.8,33.6,53.6,33.6c2.9,0,5.1-1.1,6.5-3.2c2.6-4,2-11.2-2.2-22.9c13.1,13.1,17.5,17.3,20.8,17.3    c1.1,0,2.1-0.5,2.7-1.4c2.4-3.4-0.4-12.1-12.7-48.8l-0.7-2c16,27.8,27.7,40.8,36.6,40.8c5.1,0,8.9-4.1,11.1-12.1    c1.4-5,2.3-11.9,2.7-20.3c5.7,10.9,11.2,16.3,16.8,16.3c11.3,0,20-22,27.1-69c2,58.7,3.2,66.6,8.3,66.6c2.8,0,4.7-3.1,8.2-12    c0.5,6.9,1.6,12.6,3.2,17c2.7,7.4,6.8,11.2,12.2,11.2c10.4,0,24.3-14.7,41.3-43.7c-3.6,10.3-6.7,18.9-9.2,25.7    c-7.8,21.6-9.4,26.2-7.7,28.7c0.5,0.8,1.4,1.2,2.4,1.2c2.6,0,6.1-3.4,17.7-15l0.5-0.5c-3.1,9-3.6,14.2-1.7,17.1    c1,1.5,2.7,2.3,4.7,2.3c7.7,0,24.5-11.7,60-42.4c-10.6,12.5-18.6,22.7-24.4,30.9c-9.8,13.8-13.2,22-11.2,26.6    c0.8,1.7,2.6,3.7,7.3,3.7c3.7,0,8.9-1.2,16-3.8c-11.3,12.4-15.8,20.9-13.7,25.8c1.2,2.8,4,4.2,8.5,4.2c8.3,0,23-4.8,43.9-14.3    c-34,25.2-35.6,32.2-34.2,36.7c1.3,4.1,6.2,5.8,16.4,5.8c1.5,0,3.1,0,4.9-0.1c-15.2,7.6-16.4,11.8-15.9,14.3    c0.9,4.2,7.6,4.7,12.6,4.7c9.1,0,23.5-1.9,42-5.6c-33.3,15.6-53.6,32.9-51.5,44.5c0.5,2.9,3.1,7.8,14.3,7.8c1.2,0,2.5-0.1,3.9-0.2    c-18.1,13.8-19.7,19.1-18.6,22.7c1,3.1,4.7,4.7,11.3,4.7c9.3,0,25-2.8,47.8-8.6c-39.2,18.5-50.7,26.6-49.7,34.1    c0.7,5.2,7.3,8.7,23.3,12c-14.4,4.4-21.5,9.8-21.3,16.2c0.5,12.1,29.3,20.3,57.1,25.4c-59.4,4.9-59.4,9.6-59.4,12.2    c0,2.5,1.6,5,19.7,6.9c-18.3,6.4-24,10-23.6,14.5c0.5,5.9,12.2,9.6,55,16.5c-40.2,1.9-45.7,7.6-46,11.9    c-0.4,4.5,5.6,8.6,18.3,12.3c-3.6,0.8-6.9,2-9.9,3.6c-3.2,1.7-4.9,4.7-4.8,8.2c0.2,6.3,6.1,14.6,16.5,23.5    c6.4,5.5,14.2,10.9,23,16c-17.4-4.3-32.3-6.6-42.7-6.6c-9.1,0-13.8,1.8-14.6,5.5c-0.8,3.8,3.4,8,12.8,12.9    c-19.9,0.3-26.2,1.9-27.2,6.2c-1.4,5.7,7.7,12.3,47.2,33.2c-18.3-5.4-31.1-8-38.8-8c-6,0-9.5,1.5-10.8,4.7    c-2.2,5.3,2.8,13.8,17.8,29.7c-11.2-4.6-18-6.9-22.2-6.9c-3.2,0-4.6,1.5-5.1,2.7c-2,4.5,2.5,13.4,31,46.5    c-27.2-22.6-44.8-33.6-53.6-33.6c-2.9,0-5.1,1.1-6.5,3.2c-2.6,4-2,11.2,2.2,22.9c-13.1-13.1-17.5-17.3-20.8-17.3    c-1.1,0-2.1,0.5-2.7,1.4c-2.4,3.4,0.4,12.1,12.7,48.8c0,0,0.5,1.5,0.7,2c-16-27.8-27.7-40.8-36.6-40.8c-5.1,0-8.9,4.1-11.1,12.1    c-1.4,5.1-2.3,12-2.7,20.5c-4.8-8.7-9.5-13-14.4-13c-7.2,0-13.1,8.7-18.6,27.3C244.6,696.4,241.1,714.1,237.8,736.3z" fill="#ffffff" /></svg>