<?xml version='1.0' encoding='utf-8'?>
<svg xmlns="http://www.w3.org/2000/svg" version="1.1" id="_x32_" x="0px" y="0px" viewBox="0 0 563.9 800" xml:space="preserve" preserveAspectRatio="none"><path d="M276.1,640.7c-43.8-1-136.9-22.8-188.5-102.8C36.1,458,11.1,343.5,42.4,221.3c38-148.4,167.4-191.5,278-186.4   c116.4,5.4,202.8,112.6,212.7,236.4c10,123.8-13.1,266.6-103.5,331.8C371,645.3,310.2,641.5,276.1,640.7z" fill="#ffffff" /><path d="M284,676.4c16.4,0.4,24.4,19,17.2,29.8c-9,13.5-34.7,12.9-40.2-4.6C255.6,684.1,272.3,676.1,284,676.4z" fill="#ffffff" /><path d="M240.9,743.1c16.9,0.4,20.3,28.5-1.6,28.5C217.4,771.6,217.4,742.5,240.9,743.1z" fill="#ffffff" /></svg>