<?xml version='1.0' encoding='utf-8'?>
<svg xmlns="http://www.w3.org/2000/svg" version="1.1" id="_x32_" x="0px" y="0px" viewBox="0 0 563.9 800" xml:space="preserve" preserveAspectRatio="none"><path d="M299.9,655.6c-7,0-13.5-0.2-19.3-0.3c-1.7,0-3.3-0.1-4.8-0.1c-48.9-1.2-146.2-25.5-200.3-109.4   c-27.8-43-47.1-94.2-55.8-148c-9.6-59.2-6.7-119.8,8.7-180.1C45.9,149.1,83.1,97,138.8,62.8C196.3,27.4,259.9,20,303.1,20   c6,0,12,0.1,18,0.4c59.1,2.8,114.7,30.7,156.5,78.8c39.9,45.9,64.8,106.6,70,170.9c3.9,48.4,4.6,121.2-14.5,192.8   c-18.3,68.6-50.3,119.7-95,151.9C387.3,651.4,334.9,655.6,299.9,655.6L299.9,655.6z" fill="#ffffff" /><path d="M281.9,725.3c-14.3,0-26.1-8.2-30.1-20.8c-3.6-11.6-0.1-19.8,3.4-24.7c7.1-9.6,19.5-13.1,28.1-13.1c0.3,0,0.6,0,0.9,0   c11,0.3,20.7,6.4,25.8,16.3c4.9,9.5,4.6,20.4-0.8,28.6C303.5,720.2,293.3,725.3,281.9,725.3L281.9,725.3z" fill="#ffffff" /><path d="M239.3,780C239.3,780,239.3,780,239.3,780c-9.4,0-15.2-3.9-18.4-7.1c-4.1-4.2-6.4-9.8-6.3-15.7c0.1-11.2,9-22.6,25.6-22.6   c0.3,0,0.6,0,0.9,0c13.9,0.4,22.1,12.3,22,23.6C263,768.7,255.5,780,239.3,780L239.3,780z" fill="#ffffff" /></svg>