<?xml version='1.0' encoding='utf-8'?>
<svg xmlns="http://www.w3.org/2000/svg" version="1.1" id="_x34_" x="0px" y="0px" viewBox="0 0 620.8 800" xml:space="preserve" preserveAspectRatio="none"><path d="M602.9,683.8c-0.4-1.1-0.8-2.2-1.4-3.3c-0.9-1.6-2.1-3.1-3.5-4.3c-0.3-0.4-0.6-0.7-0.9-0.8c-3-2.3-6.6-3.5-10.4-3.5   c-1.1,0-2.2,0.1-3.3,0.3c-2.4,0.5-4.9,0.7-7.6,0.7c-18.1,0-39-10.9-46-23.2c1.8-3.1,5-6.6,10.3-10.6   c37.2-27.9,52.6-97.5,51.1-150.4c0-0.2,0-0.4,0-0.6c0.1-5,0.2-9.9,0-14.7c-1.3-47.8-14.9-86.9-37.9-110.6c5-20,7.1-41.1,6.4-62.7   c1.7-55.5-15.5-115.1-49.5-164.9C459.3,60.9,380.5,20,288.1,20c-5.6,0-11.3,0.1-16.9,0.4c-90.3,4.8-161.4,39.1-205.6,99.3   c-26.1,35.5-42.2,79-47.8,129.2c-1.8,15.9-2.5,32.3-2.2,49.2c-0.7,38.6,4.3,80,14.9,123.6c-1.5,19.1-2.1,37.5-1.8,55.1   c-1.3,95,21.6,169,68.3,220.5c49,54.1,124.9,82.7,219.4,82.7c79.4,0,148.9-20.2,163.2-28.3c14.1-7.9,29-8.2,44.8-8.4   c23.9-0.4,63.5-2.9,74.9-27.7C607.4,698.2,605.9,689.5,602.9,683.8z" fill="#ffffff" /></svg>