<!--?xml version="1.0" encoding="utf-8"?-->
<!-- Generator: Adobe Illustrator 22.1.0, SVG Export Plug-In . SVG Version: 6.00 Build 0)  -->
<svg version="1.1" id="_x33_" xmlns="http://www.w3.org/2000/svg" xmlns:xlink="http://www.w3.org/1999/xlink" x="0px" y="0px" viewBox="0 0 404.9 800" style="enable-background:new 0 0 404.9 800;" xml:space="preserve">
<style type="text/css">
	.stblack{fill:#000000;}
	.st0{fill:#FFFFFF;}
</style>
<g>
	<path class="stblack" d="M224.5,780c-62.8,0-107.8-24.1-141.7-76c-15.3-23.4-27.3-83.7-27.4-101.1c0-1,0-1.9-3.5-4.1c-6.5-4.1-18.6-7.8-29.5-10.8
		c-7.6-2.1-12.7-9.2-12.3-17c0.4-7.8,6.2-14.4,13.9-15.7c20.6-3.6,30.9-24.2,30.8-32.3c-0.2-16-0.7-72.2-0.7-122.9
		c0-178.7,0-260.3,28.6-304c33.9-51.8,78.9-76,141.7-76c62.7,0,109.5,24.9,142.9,76c27.5,42,27.4,117.2,27.4,282l0,22
		c0,178.7,0,260.3-28.6,304C332.3,755.9,287.3,780,224.5,780z"></path>
	<path class="st0" d="M353.3,105.2c-25.8-39.5-63.5-68.4-128.8-68.4c-65.3,0-101.8,28.9-127.6,68.4C71,144.7,71,226.8,71,400
		c0,50.9,0.4,107,0.7,122.6c0.2,15.7-15.3,44-44.7,49.1c30.2,8.4,45.1,15.3,45.3,31c0.1,15.7,11.8,72.4,24.7,92
		c25.8,39.5,62.3,68.4,127.6,68.4c65.3,0,101.8-28.9,127.6-68.4C378,655.3,378,573.2,378,400C378,226.8,379.2,144.7,353.3,105.2z"></path>
</g>
</svg>
