<!--?xml version="1.0" encoding="utf-8"?-->
<!-- Generator: Adobe Illustrator 22.1.0, SVG Export Plug-In . SVG Version: 6.00 Build 0)  -->
<svg version="1.1" id="_x34_" xmlns="http://www.w3.org/2000/svg" xmlns:xlink="http://www.w3.org/1999/xlink" x="0px" y="0px" viewBox="0 0 519.7 800" style="enable-background:new 0 0 519.7 800;" xml:space="preserve">
<style type="text/css">
	.stblack{fill:#000000;}
	.st0{fill:#FFFFFF;}
</style>
<g>
	<path class="stblack" d="M506.7,624.6c-14.8-99.7-3.2-479.9-3.2-479.9S391.4,81.9,359.5,52c-28.7,2.8-230.3-32-230.3-32S37.2,117.9,14,141.6
		c-4.3,21.3,6.4,463.9,6.4,463.9C41,630.6,127,703.5,138.8,730.2c45.8,8.5,189.8,28.8,189.8,28.8s26.6-19.9,65.4-46l86.3,67
		l-38.6-104.3C475.7,651.2,498.8,640.3,506.7,624.6z"></path>
	<path class="st0" d="M492.7,611.4c-6-45.3-3-452.7-3-452.7L353.9,71.2L136.6,41c0,0-104.6,94.6-108.6,114.7
		c-4,20.1,6,437.6,6,437.6c4,24.1,100.6,92.6,111.7,117.7c43.3,8.1,179.1,27.2,179.1,27.2s32.5-19.6,69-44.2l58.7,48.3l-28.8-69
		C455.9,650.1,485.3,626.2,492.7,611.4z"></path>
</g>
</svg>
