<!--?xml version="1.0" encoding="utf-8"?-->
<!-- Generator: Adobe Illustrator 25.2.3, SVG Export Plug-In . SVG Version: 6.00 Build 0)  -->
<svg version="1.1" id="_x34_" xmlns="http://www.w3.org/2000/svg" xmlns:xlink="http://www.w3.org/1999/xlink" x="0px" y="0px" viewBox="0 0 625.4 800" style="enable-background:new 0 0 625.4 800;" xml:space="preserve">
<style type="text/css">
	.stblack{fill:#000000;}
	.st0{fill:#FFFFFF;}
</style>
<g>
	<path class="st0" d="M283.9,676.7C208,661,59,727.1,35.7,777.6C153.6,573,115.7,455.2,62.8,432.2c108-26.6-28.4-250.6-44.7-262.8
		c200.5,136.8,172-21.7,149-82.6c8.9,10.4,17.5,19.5,25.8,27.5c38.7,36.9,95.7,46.9,144.7,25.6c53-23.1,111.2-61.2,147-106.3
		c-21.7,128.5-19.5,146.7,38.7,154.8c-56.9,73.1,2.7,116.5,74.5,102.9c-92.1,82.6-96.6,173.6-50.1,231.6
		c-54.3,50,4.1,176.1,19,193.7c-88-89.4-207.2-39.3-230.3,9.5C325.6,697,309.8,682,283.9,676.7z"></path>
	<path class="stblack" d="M601.4,286.8c-2.7,0.5-6,0.9-10.9,1.7c-0.9,0.1-1.8,0.3-2.5,0.4c-0.7,0.1-1.4,0.1-2.1,0.2c-1.3,0.1-2.5,0.2-3.5,0.3
		s-2,0.2-2.9,0.3c-0.4,0-0.9,0.1-1.3,0.1l-0.4,0l-0.2,0l-0.4,0c-1,0-2,0-3.3,0.1c-0.6,0-1.3,0-2.1,0c-0.8,0-1.7,0-2.7-0.1
		c-4.1-0.1-6.1-0.3-8.1-0.5c-1-0.1-2-0.2-3.3-0.4c-1.2-0.2-2.8-0.3-4.7-0.7c-2-0.4-3.5-0.6-4.7-0.9c-1.2-0.3-2.2-0.6-3.2-0.8
		c-1-0.2-1.9-0.5-3.1-0.9c-1.2-0.4-2.7-0.8-4.5-1.5c-3.7-1.4-5.5-2.3-7.3-3.1c-0.9-0.4-1.7-0.9-2.8-1.5c-0.5-0.3-1.1-0.6-1.8-1
		c-0.7-0.4-1.3-0.9-2.2-1.5c-3.2-2.2-7.8-6-11.1-10.7c-3.4-4.7-5.6-10-6.4-13.8c-2.1-7.3-1.8-18.6,0.7-26.3
		c1.1-3.8,3.8-10.6,7.3-16.9c0.9-1.6,1.9-3.1,2.8-4.7c0.9-1.5,1.9-2.9,2.8-4.3c0.6-0.9,1.2-1.8,1.8-2.6c0.7-1,1.4-2,2.1-2.8
		c1.3-1.8,2.5-3.4,3.5-4.7c1.4-1.9,2.6-3.5,3.4-4.6c-3.9-0.6-6.3-1-9.1-1.5c-1.4-0.2-2.9-0.5-4.7-0.8c-0.9-0.2-1.9-0.3-3.1-0.5
		c-0.7-0.1-1.4-0.3-2.2-0.5c-4-0.8-9.9-2.2-15.2-4.6c-2.7-1.1-5.1-2.6-7.2-4.1c-2-1.6-3.7-3.2-4.8-4.6c-2.3-2.9-3-4.6-3.9-6.3
		c-0.8-1.7-1.5-3.5-2.5-7.3c-0.4-1.9-0.7-3.4-0.8-4.6c-0.1-1.2-0.2-2.2-0.3-3.2c-0.1-1-0.1-2-0.2-3.3c-0.1-1.3-0.2-2.8-0.2-4.8
		c-0.1-8.1-0.1-8.2,0.3-16.4c0.3-4.1,0.4-6.2,0.6-8.3c0.2-2.1,0.4-4.1,0.8-8.3c1-8.3,0.8-8.3,1.9-16.6c1.2-8.3,1.4-8.2,2.7-16.5
		c0.6-4.1,1.9-12.4,3.2-21.1c1-6.2,2-12.5,2.9-18.2c0.5-2.8,0.9-5.5,1.3-8c0.2-1.2,0.4-2.4,0.6-3.5c0.2-1,0.5-2.4,0.3-2.6
		c-2.1,2.5-3.2,3.9-4.2,5c-2.2,2.6-4.5,5.3-6.8,8.1c-2.5,2.7-5,5.6-7.5,8.4c-1.3,1.4-2.6,2.9-3.8,4.3c-0.7,0.7-1.3,1.4-1.9,2.1
		c-0.5,0.5-1,0.9-1.4,1.4c-1.6,1.6-3.1,3.1-4.6,4.6c-2.9,2.9-4.5,4.3-5.9,5.8c-1.5,1.5-2.9,3-6,5.7c-3.1,2.7-4.7,4-6.4,5.3
		c-1.7,1.3-3.3,2.5-6.5,5.1c-3.2,2.6-7.4,5.7-11.5,8.8c-4.3,3-8.4,6.1-11.9,8.4c-6.9,4.7,2-1-4.8,3.7c-1.7,1.2-4.5,2.9-7.7,5
		c-3.2,2.1-7,4.4-10.8,6.7c-7.6,4.6-15.4,8.8-19.1,10.8c-7.3,4-17.3,6.3-24.8,9.8c-1.9,0.9-4.1,2-6.5,3.3c-1.1,0.6-2.4,1.3-3.7,2
		c-1.2,0.6-2.5,1.2-3.7,1.9c-1.3,0.6-2.5,1.3-3.8,1.9c-1.2,0.7-2.5,1.1-3.7,1.6c-2.5,0.9-4.7,1.9-6.7,2.3c-7.9,1.8,0-0.2-7.9,1.6
		c-1.2,0.3-2.5,0.4-3.8,0.6c-5.8,0.8-11.7,0.9-17.5,1.1c-8,0.5-19.2,0.1-27.2-1.3c-4-0.8-4.9-1-5.8-1.2c-0.5-0.1-0.9-0.2-1.8-0.4
		c-0.8-0.2-2-0.6-4-1.1c-1.9-0.5-3.4-0.9-4.6-1.3c-1.2-0.4-2.1-0.7-3.1-1.1c-1-0.3-1.9-0.7-3.1-1.1c-1.2-0.4-2.7-0.9-4.5-1.8
		c-3.7-1.7-7.1-3.3-10.2-5.4c-1.6-1-3.2-2-4.7-3c-1.5-1.1-3.1-2.3-4.7-3.4c-1-0.7-2-1.4-2.9-2.1c-0.9-0.7-1.7-1.4-2.5-2.1
		c-1.6-1.3-3-2.5-4.2-3.5c-2.5-2.3-4.3-4-5.9-5.5c-3.3-3-5.4-5.2-8.3-8.1c-4.4-4.4-12.7-13-18.7-19.9l-22.2-25.3l12.2,31.3
		c1.1,2.8,2,5.2,2.6,7.1c4.5,13,8,26.4,10.4,39.9c1.3,8.1,0.3,3.7,1.4,11.7c0.5,4,0.7,5.2,0.9,6.4c0.2,1.2,0.4,2.4,0.6,6.4
		c0.2,4,0.7,11.9,0.1,19.7c-0.5,7.8-2.5,15.3-4.2,18.7c-0.8,1.8-1.5,3-2.1,4c-0.7,1-1.1,1.8-1.7,2.6c-1.2,1.5-2.2,3.1-5,5.5
		c-1.4,1.2-2.5,2.1-3.5,2.7c-0.9,0.7-1.8,1.1-2.6,1.5c-0.8,0.5-1.7,0.8-2.7,1.3c-0.5,0.2-1.1,0.5-1.8,0.7c-0.7,0.2-1.5,0.5-2.4,0.7
		c-3.7,1-7.4,1-11.1,0.7c-3.7-0.3-7.3-1-11.2-1.5c-7.8-1.1-16.8-1.9-24.6-4.7c-7.7-2.9-7.8-2.7-15.3-6c-3.8-1.7-9.4-4.3-15-7.1
		c-1.4-0.7-2.8-1.4-4.1-2.1c-1.3-0.7-2.7-1.4-3.9-2.1c-2.5-1.3-4.8-2.6-6.6-3.7c-7.2-4.1-7.1-4.3-14.3-8.6c-7.1-4.4-7-4.5-14-9.1
		c-2.2-1.4-5-3.3-8.2-5.4c-0.7-0.8-1.5-1.6-2.6-2.5l-0.4,0.5c-0.1,0-0.1-0.1-0.2-0.1l-4.4,6.2c0,0,0.1,0.1,0.1,0.1l-0.3,0.5
		c0.8,0.6,1.6,1.1,2.4,1.6c0.3,0.3,0.6,0.7,0.8,1c1.1,1.3,2.2,2.7,3.2,4.1c2,2.7,3.9,5.3,5.2,7.4c4.6,6.9,7.9,13.2,12.2,20.4
		c4.2,7.2,0,0,4.2,7.2c2.1,3.6,6.1,11.2,10,18.9c3.8,7.7,7.5,15.5,9.3,19.2c3.6,7.5,8.6,14.5,11.9,22.2c3.3,7.7,3.2,7.7,6.3,15.4
		c3.1,7.7,7.4,21.8,9.7,29.7c1.2,4,2.9,10.9,4.2,18c1.3,7,2.3,14.1,2.7,18.1c1.6,12.9,1.8,26-1.5,38c-1.1,3.7-1.8,5.5-2.5,7.3
		c-0.4,0.9-0.8,1.7-1.3,2.8c-0.6,1-1.2,2.3-2.2,3.9c-1.1,1.5-1.8,2.7-2.6,3.6c-0.8,0.9-1.3,1.6-2,2.3c-0.7,0.7-1.3,1.3-2.2,2.1
		c-0.9,0.7-1.9,1.7-3.5,2.8c-0.5,0.4-1.1,0.7-1.6,1.1c-0.3,0.2-0.6,0.4-0.9,0.6c-0.3,0.2-0.7,0.4-1,0.6c-0.7,0.4-1.4,0.8-2.1,1.2
		c-0.2,0.2-1.1,0.5-1.8,0.8c-0.7,0.3-1.5,0.6-2.2,0.9c-0.7,0.3-1.5,0.6-2.2,1c-0.4,0.2-0.7,0.3-1.1,0.5l-1.4,0.4
		c-1.9,0.6-3.8,1.1-5.7,1.7c-3.6,1.1-7.2,2.1-10.6,3.1c3.6,1.8,7,3.4,10.1,5c3.1,1.7,6,3.2,8.4,4.4c0.8,0.5,1.6,1,2.5,1.6
		c0.6,0.5,1.3,1,2,1.6c0.5,0.4,1,0.8,1.6,1.2c0.5,0.5,1,1,1.6,1.5c0.5,0.5,1.1,1,1.7,1.6c0.6,0.5,1.2,1.1,1.7,1.7
		c1.1,1.2,2.2,2.4,3.3,3.7c4.3,5.2,7.8,11.1,9.7,14.6c1.1,1.7,2.2,4.2,3.8,7c0.8,1.4,1.4,3,2.2,4.5c0.7,1.6,1.6,3.2,2.2,4.9
		c0.7,1.7,1.3,3.4,2,5c0.7,1.6,1.1,3.3,1.6,4.8c0.5,1.6,1,3,1.3,4.3c0.3,1.3,0.6,2.5,0.8,3.5c0.4,2,0.7,3.5,0.9,4.8
		c0.2,1.3,0.3,2.3,0.4,3.3c0.2,2.1,0.5,4.1,1,8.2c0.4,4.1,0.6,6.1,0.8,8.2c0.1,2.1,0.2,4.1,0.4,8.2c0.1,2.1-2.3,8.6-2.3,11.4
		c0,2.8,2.4,2,2.2,5.1c-0.2,3.1-0.3,6.2-0.5,9c-0.3,2.8-0.5,5.4-0.7,7.5c-0.3,4.1-0.7,6.2-0.9,8.2c-0.3,2.1-0.5,4.1-1.1,8.2
		c-0.7,4.1-1,6.1-1.4,8.2c-0.3,2-0.6,4.1-1.5,8.2c-0.9,4.1-2,10.2-3.6,16.2c-0.8,3-1.5,6.1-2.2,8.8c-0.8,2.8-4.2,6.9-4.7,8.9
		c-2.3,8,0.3,6.3-2.2,14.3c-2.5,7.9-2.8,7.8-5.6,15.7c-9.4,26.1-20.6,51.7-33.4,76.4c-3.9,7.3-4.2,7.2-8.1,14.6c-2,3.7-3,5.5-4,7.4
		c0,0-0.1,0.1-0.1,0.1c-1.7,2-3.1,4.2-4.5,6.3c-0.7,1-1.3,2.2-1.9,3.3c-0.6,1.1-1.1,2.1-1.6,3.1L40,780c1.5-2.6,2.4-4.4,3.3-5.8
		c3.2-5.8,3.9-7.1,6.1-11c1-1.2,2-2.4,2.9-3.5c1.1-1.1,2.1-2.2,3.1-3.2c1.9-2.1,3.7-3.6,5-4.7c1.5-1.4,3.6-3,5.8-4.7
		c2.2-1.8,4.8-3.6,7.3-5.4c5.1-3.6,10.3-7,13.8-9.2c3.5-2.3,5.3-3.3,7.1-4.4c1.8-1.1,3.5-2.2,7.2-4.2c7.3-4.1,14.8-6.1,22.3-9.7
		c7.6-3.5,7.6-3.3,15.3-6.5c15.3-6.5,30.9-12.2,46.8-16.8c7.9-2.3,18.9-7,27.1-8.6c8.2-1.7,13.3-0.5,21.4-1.6
		c8.2-0.8,8.1-1.2,16.3-1.6c4.1-0.2,5.2,2.6,7.3,2.6c2,0,4.9-2.2,9-2.1c8,0.7,8.1,0.4,16,1.7c1.9,0.5,3.4,0.8,4.6,1.1
		c1.1,0.4,2.1,0.7,3,1c0.9,0.3,1.8,0.7,3,1.1c0.6,0.2,1.2,0.5,1.9,0.7c0.7,0.3,1.5,0.7,2.3,1.1c1.8,0.7,3,1.5,4.1,2.1
		c1.1,0.5,1.9,1.1,2.7,1.6c0.8,0.5,1.6,1,2.6,1.8c0.9,0.7,2.2,1.5,3.6,2.8c0.7,0.6,1.4,1.2,1.9,1.7c0.5,0.5,1,1,1.4,1.4
		c0.9,0.8,1.6,1.5,2.2,2.2c0.6,0.7,1.3,1.4,2.1,2.4c0.7,1,1.7,2.1,2.8,3.7c2.2,3.3,3.2,5,4.2,6.7c0.5,0.8,0.9,1.8,1.5,2.9
		c0.2,0.3,0.3,0.6,0.5,1c0.3,0.6,0.6,1.1,0.9,1.8c0.6,1.3,1.2,2.7,1.9,4.4c0.5,1.2,1.1,2.7,2.1,4.9c0.4,1.1,1,2.4,1.6,4
		c0.3,0.8,0.6,1.6,1,2.5c0.2,0.4,0.4,0.9,0.6,1.4c0.2,0.5,0.4,1.1,0.6,1.3c1.1-2.1,2.4-4.5,3.7-7.1c1.5-2.6,3.1-5.5,4.8-8.5
		c0.4-0.8,0.9-1.4,1.4-2.1c0.4-0.5,0.8-1,1.2-1.6c0.6-0.7,1.1-1.5,1.7-2.3c1.3-1.4,2.6-2.9,3.9-4.3c5.3-5.7,11.3-10.1,14-12.1
		c6.7-4.6,6.8-4.4,13.8-8.5c1.8-1,3.1-1.7,4.3-2.3c1.2-0.5,2.1-1,3-1.4c0.9-0.4,1.8-0.9,3-1.4c1.2-0.5,6.3-2.7,8.2-3.5
		c3.7-1.6,2-0.5,3.9-1.3c1.9-0.7,3.9-1.3,7.8-2.5c1.9-0.6,3.4-1,4.7-1.3c1.2-0.3,2.2-0.6,3.2-0.8c2-0.6,4-0.9,8-1.7
		c8-1.3,8-1.7,16.1-2.4c4.1-0.3,10.2-0.5,16.3-0.3c6.1,0.2,9.3,2.6,13.4,3.2c4.1,0.5,7.8-1.2,8.8-1.4c0.9-0.1,1.9-0.3,5.9,0.5
		c8,2.1,8.1,1.7,15.9,4.3c2,0.6,3.4,1.2,4.6,1.7c1.2,0.5,2.1,0.9,3.1,1.3c1,0.4,1.9,0.8,3.1,1.3c1.4,0.7,4.7,2.3,6.2,3.1
		c1.8,0.9,1.7,0.8,3.1,1.7c1.4,0.9,2.8,1.9,4.1,2.8c1.3,0.9,2.7,1.8,4.1,2.8c1.4,1,2.9,2.1,4.6,3.2c3.5,2.2,5,3.5,6.7,4.8
		c0.8,0.6,1.6,1.3,2.6,2c1,0.8,2.3,1.7,3.8,3c2.6,2.2,5.2,4.3,7.7,6.5l7.4,6.9l14.7,10c-0.9-1.1-5.8-9.5-9.2-15.3l0.2-0.2
		c-0.2-0.2-0.4-0.4-0.6-0.7c-1.4-2.4-2.5-4.3-2.9-4.9c-0.6-1-1.3-2-1.9-3.1c-0.6-1-1.2-2.1-1.8-3.1c-2.4-4.2-4.5-8.6-6.6-13
		c-1.7-3.8-2.5-5.7-3.3-7.6c-0.8-2-1.6-3.9-3.1-7.7c-3.1-7.7-3.3-7.6-6-15.4c-1.3-3.9-2-5.9-2.5-7.9c-0.5-2-1.2-4-2.3-8
		c-0.6-2-1.3-4.5-2-7.2c-0.4-1.4-0.7-2.8-1.1-4.3c-0.3-1.5-0.7-3-1-4.5c-1.4-6-2.4-12.1-3.1-16.2c-1.1-8.2-1.1-8.2-1.8-16.3
		c-0.3-8.2-0.4-8.2-0.2-16.3c0.1-2,0.3-3.5,0.3-4.8c0.1-1.3,0.3-2.3,0.4-3.3c0.3-2,0.5-4,1.3-8c0.2-1,0.4-1.8,0.5-2.6
		c0.2-0.8,0.4-1.4,0.6-2c0.3-1.2,0.6-2.2,0.9-3.1c0.1-0.5,0.3-1,0.4-1.5c0.2-0.5,0.4-1,0.6-1.6c0.4-1.2,1-2.6,1.7-4.4
		c0.9-1.8,1.5-3.1,2-4.2c0.3-0.6,0.5-1.1,0.7-1.5c0.3-0.5,0.5-0.9,0.8-1.3c0.5-0.9,1-1.7,1.6-2.8c0.6-1.1,1.5-2.3,2.7-3.8
		c0.6-0.8,1.1-1.5,1.6-2.1c0.1-0.2,0.2-0.3,0.4-0.4c0.2-0.2,0.4-0.4,0.6-0.6c0.4-0.4,0.7-0.7,1-1.1c1.3-1.3,2.4-2.4,3.4-3.5
		c0.5-0.5,1.1-1.1,1.6-1.7l0.2-0.2l-0.2-0.2c-0.1-0.2-0.3-0.3-0.4-0.5c-0.3-0.3-0.5-0.7-0.8-1.1c-1.2-1.5-2.5-3.3-4.4-5.8l-0.3-0.5
		l-0.2-0.3c-0.2-0.2-0.3-0.5-0.5-0.7c-0.3-0.5-0.7-1-1-1.5c-0.7-1-1.5-2.1-2.2-3.3c-1.4-2.4-3.2-4.9-4.5-7.7c-3-5.3-5.4-11-6.9-14.7
		c-0.8-1.9-1.5-4.3-2.5-7c-0.5-1.3-0.8-2.7-1.2-4.2c-0.4-1.4-0.9-2.9-1.2-4.4c-0.3-1.5-0.7-3-1-4.4c-0.3-1.5-0.5-2.9-0.8-4.3
		c-0.5-2.8-0.8-5.3-1.1-7.3c-0.1-1-0.2-1.9-0.3-2.7c-0.1-0.8-0.1-1.5-0.2-2.1c-0.1-1.3-0.2-2.3-0.3-3.3c-0.2-2-0.2-4.1-0.3-8.2
		c0.3-16.4,3.5-32.7,9-48.1c1.3-3.9,2.1-5.8,2.9-7.7c0.8-1.9,1.5-3.8,3.2-7.5c0.9-1.9,1.5-3.3,2.1-4.4c0.6-1.1,1.1-2.1,1.5-3
		c1-1.8,1.8-3.7,3.9-7.3c2-3.6,5.9-9.8,10.2-15.8c1.1-1.5,2.1-3,3.2-4.4c1.1-1.4,2.2-2.8,3.2-4.1c1-1.3,1.9-2.5,2.8-3.6
		c0.9-1.1,1.7-2,2.3-2.8c3.6-4.6,7.5-9,11.4-13.3c2.8-3,3.7-4.3,4.6-5.6c0.4-0.6,0.9-1.3,1.6-2.1c1-1.1,2.5-2.6,4.6-4.7
		c4.3-4.1,5.7-5.4,7.2-6.7c1.6-1.3,3.3-2.7,8.2-7.3c1.5-1.4,2.8-2.6,3.9-3.6c0.5-0.5,1-0.9,1.3-1.2c0.2-0.2,0.2-0.2,0.3-0.4l0.1-0.2
		C606.5,285.9,604.1,286.3,601.4,286.8z M585.9,297.1l-0.5,0.5l-1,0.9c-0.7,0.6-1.3,1.2-2,1.7c-0.8,0.7-1.5,1.5-2.3,2.2l-1.1,1.1
		l-0.3,0.3l-0.1,0.1l-0.3,0.3l-1.1,1.2c-3,3.1-6.2,6.3-9.3,10c-3.3,3.6-6.6,7.7-10.2,12.1c-2.6,3.4-6.6,8.9-10.3,14.7
		c-3.7,5.8-7.1,11.7-9.2,15.4c-1.1,1.8-2.3,4.2-3.7,6.8c-0.7,1.3-1.4,2.7-2.1,4.1c-0.7,1.4-1.3,2.9-2,4.3c-1.4,2.9-2.6,5.9-3.7,8.6
		c-1.2,2.7-2,5.3-2.7,7.3c-1.5,4-2,6.1-2.6,8.2c-0.3,1-0.6,2.1-0.9,3.4c-0.3,1.3-0.7,2.9-1.2,5c-0.6,2.1-1.1,4.7-1.7,7.6
		c-0.6,2.9-1,6.1-1.5,9.3c-0.4,3.2-0.7,6.4-1,9.4c-0.1,3-0.3,5.7-0.3,7.8c0.1,4.3,0,6.5,0.2,8.6c0.1,1.1,0.1,2.2,0.2,3.5
		c0.1,1.3,0.2,3,0.5,5.1c0.5,4.3,0.9,6.4,1.3,8.5c0.4,2.1,0.9,4.2,1.9,8.4c1.1,4.2,1.7,6.3,2.3,8.3c0.7,2,1.3,4.1,2.9,8.2
		c1.1,2.7,2.1,5.4,3.4,7.9c0.6,1.3,1.2,2.6,1.9,3.9l2.1,3.8c1.3,2.6,2.9,4.9,4.4,7.4c0.7,1.2,1.6,2.4,2.4,3.6l1.2,1.8l0.6,0.9
		l0.3,0.4l0.2,0.2c0.7,0.9,1.2,1.6,1.6,2.1l0.3,0.4l0.1,0.2l-0.2,0.2c-0.2,0.2-0.4,0.4-0.6,0.6c-0.4,0.4-0.8,0.8-1.3,1.3
		c-0.3,0.2-1.6,1.9-2.9,3.5c-0.7,0.9-1.3,1.7-1.8,2.3c-0.5,0.7-0.9,1.4-1.3,2c-0.7,1.2-1.3,2.1-1.9,3.1c-0.3,0.5-0.6,0.9-0.9,1.5
		c-0.3,0.5-0.5,1.1-0.8,1.7c-0.6,1.2-1.4,2.7-2.3,4.7c-0.8,2.1-1.9,4.6-2.7,7.5c-0.8,2.9-1.8,6.1-2.4,9.3
		c-1.4,6.4-1.9,12.9-2.1,17.2c-0.2,4.3-0.2,6.5-0.3,8.6c0,2.2,0.1,4.3,0.2,8.6c0.2,2.1,0.4,4.8,0.7,7.7c0.4,2.9,0.7,6.1,1.2,9.3
		c0.5,3.2,1,6.3,1.6,9.2c0.3,1.4,0.6,2.8,0.8,4.1c0.3,1.3,0.5,2.4,0.8,3.5c1.9,8.3,3.9,13.7,6.3,21.9c1.2,4.1,1.9,6.1,2.7,8.1
		c0.7,2,1.4,4,2.9,8c3,7.9,2.9,7.9,6.2,15.8c1.6,3.8,2.5,5.8,3.3,7.8c0.7,1.8,1.5,3.5,3,6.6c-0.9-0.7-1.9-1.4-3-2.2
		c-1.2-0.9-2.4-1.8-3.7-2.7c-1.3-0.9-2.7-1.8-4-2.6c-5.3-3.6-11.1-6.7-14.8-8.8c-3.9-1.9-5.8-2.9-7.7-3.8c-1.9-1-4-1.7-7.9-3.4
		c-2-0.9-4.6-1.7-7.4-2.6c-1.4-0.5-2.9-1-4.4-1.4c-1.5-0.4-3.1-0.8-4.7-1.2c-1.6-0.4-3.1-0.8-4.7-1.2c-1.6-0.3-3.1-0.6-4.5-0.9
		c-1.5-0.3-2.8-0.6-4.1-0.8c-1.3-0.2-2.5-0.4-3.6-0.5c-2.1-0.3-3.7-0.5-5.1-0.7c-1.3-0.2-2.4-0.2-3.5-0.3c-1.1-0.1-2.2-0.2-3.5-0.3
		c-1.3-0.1-3-0.3-5.1-0.3c-4.3-0.1-6.5-0.2-8.6,0c-1.1,0-2.2,0.1-3.5,0.2c-1.3,0.1-3,0.1-5.1,0.3c-8.6,0.7-8.6,0.4-17.2,1.7
		c-4.2,0.8-6.4,1.2-8.4,1.9c-1.1,0.3-2.1,0.6-3.4,0.9c-1.3,0.4-2.9,0.7-4.9,1.4c-4.1,1.2-10.3,3.1-16.3,5.6c-1.5,0.6-3,1.2-4.5,1.8
		c-1.4,0.7-2.9,1.3-4.2,2c-2.7,1.2-5.1,2.5-7,3.5c-7.6,4.3-7.5,4.3-14.7,9.2c-3.5,2.7-5.3,3.9-6.9,5.4c-1.7,1.4-3.4,2.8-6.5,5.9
		c-0.8,0.8-1.5,1.4-2.1,2.1c-0.6,0.6-1.1,1.2-1.6,1.7c-0.9,1-1.7,1.8-2.4,2.7c-0.7,0.9-1.4,1.8-2.3,2.9c-0.2,0.2-0.4,0.5-0.6,0.7
		c-0.1,0.2-0.2,0.4-0.4,0.6c-0.6,0.8-0.7,1.3-1,1.8l-0.1,0l-0.1-0.2c-0.1-0.1-0.1-0.3-0.2-0.4c-0.2-0.3-0.3-0.8-0.6-1.3
		c-0.1-0.3-0.2-0.5-0.3-0.7l-0.1-0.3c-0.2-0.3-0.3-0.6-0.4-0.9c-0.6-1.2-1-2.3-1.6-3.2c-1-2-2-4-4.5-7.7c-2.5-3.7-6.7-9.1-11.9-13.7
		c-5.1-4.6-11.2-8.1-15.3-10c-1-0.5-1.9-0.9-2.8-1.2c-0.8-0.3-1.6-0.6-2.2-0.8c-1.3-0.5-2.4-0.8-3.5-1.1c-1.1-0.3-2.2-0.6-3.5-0.9
		c-1.4-0.3-3-0.7-5.2-1.2c-8.7-1.5-8.7-1.8-17.4-2.5c-2.2-0.1-4.9-0.2-7.9-0.2c-3,0.1-6.2,0-9.5,0.3c-6.5,0.3-12.9,1.1-17.1,1.6
		c-4.2,0.6-6.4,0.9-8.5,1.3c-2.1,0.4-4.2,0.8-8.4,1.5c-8.4,1.7-8.4,1.8-16.6,3.8c-4,1-6.1,1.4-8.3,2c-2.1,0.5-4.2,0.9-8.2,2.1
		c-8.2,2.4-8.1,2.5-16.2,5.2c-8,2.9-8,2.9-15.9,6c-4,1.5-5.9,2.3-7.9,3.1c-2,0.8-4,1.5-7.8,3.3c-1.9,0.9-4.4,1.9-7,3.1
		c-2.6,1.2-5.5,2.6-8.4,4c-2.9,1.4-5.7,2.8-8.3,4.2c-2.6,1.4-4.9,2.6-6.8,3.6c-3.8,2-5.6,3.1-7.4,4.2c-1.8,1.1-3.7,2.1-7.3,4.4
		c-1.8,1.1-4.1,2.4-6.6,4c-2.5,1.6-5.2,3.2-7.8,5.1c-2.7,1.8-5.3,3.6-7.7,5.4c-1.2,0.9-2.3,1.7-3.4,2.5c-1,0.8-2,1.6-2.8,2.2
		c-0.6,0.5-1.1,0.9-1.6,1.3c3-5.8,3.4-6.3,6.9-13.3c3.8-7.6,3.5-7.7,7.1-15.3c3.5-7.7,3.6-7.6,6.9-15.4c3.3-7.8,3.3-7.8,6.4-15.7
		c3.1-7.9,3.2-7.8,6-15.8c2.8-8,2.7-8,5.2-16.1c0.7-2,1.5-4.5,2.4-7.3c0.9-2.8,1.8-5.8,2.7-8.9c0.9-3.1,1.8-6.1,2.6-8.9
		c0.7-2.8,1.4-5.4,1.9-7.5c0.5-2.1,1.2-4.6,1.8-7.5c0.6-2.9,1.2-6,1.9-9.1c0.7-3.1,1.2-6.3,1.6-9.1c0.5-2.9,0.9-5.5,1.3-7.6
		c0.5-4.2,0.8-6.3,1.1-8.4c0.2-2.1,0.6-4.2,0.9-8.5c0.4-4.2,0.6-6.4,0.9-8.5c0.2-2.1,0.3-4.3,0.5-8.5c0.2-4.3,0.1-6.4,0.1-8.5
		c0-1.1,0-2.1,0-3.5c0-1.3,0-2.9-0.1-5.1c-0.2-4.2-0.4-22.2-4.5-39.9c-1.9-8.9-4.9-17.5-7.8-24.3c-0.8-1.7-1.5-3.3-2.2-4.8
		c-0.7-1.5-1.5-2.8-2.1-3.9c-1.3-2.3-2.2-4.1-2.9-5c-1.3-1.8-2.4-3.5-3.8-5c-1.4-1.4-2.7-2.8-4-4c-3.5-3-6.5-5.7-9-7.8
		c-1.6-1.5-3-2.5-4.1-3.4c-0.2-0.2-0.4-0.3-0.6-0.5c-0.2-0.1-0.3-0.3-0.5-0.4c-0.7-0.4-1.3-0.9-2.7-1.6c-0.3-0.2-0.7-0.3-0.7-0.3
		c1.1-0.4,1.8-0.5,2.5-0.8c0.4-0.1,0.7-0.2,1.2-0.4c0.6-0.3,1.2-0.6,2.1-1c4-2.1,9.8-5.9,14.5-11c4.7-5.1,8-11.2,9.7-15.4
		c1.7-4.2,2.2-6.4,2.8-8.5c0.5-2.2,1-4.3,1.7-8.7c0.6-4.4,0.7-4.2,0.9-4c0.1,0.1,0.2,0.2,0.3-0.3c0.1-0.5,0.3-1.5,0.4-3.7
		c0.6-8.8-0.7-18.2-1.8-26.7c-0.6-4.3-1-6.4-1.4-8.5c-0.4-2.1-0.8-4.2-1.7-8.4c-1.9-8.3-2.1-8.3-4.4-16.5c-2.4-8.2-2.2-8.2-5-16.3
		c-2.8-8-2.9-8-6-15.9c-1.5-3.9-2.4-5.9-3.2-7.9c-0.8-2-1.7-3.9-3.3-7.8c-3.4-7.7-3.1-7.9-6.7-15.5c-3.6-7.6-3.8-7.6-7.6-15.1
		c-3.8-7.5-5.9-15.5-10-23c-4.1-7.4-10.2-14.1-14.6-21.3c-3.1-5-4.1-6.5-6-9.4c1.2,0.7,2.6,1.6,4.5,2.8c7.2,4.4,7.1,4.6,14.4,8.9
		c3.7,2.1,5.6,3,7.5,4c1.9,1,3.8,2,7.6,3.9c3.8,2,6.2,3.7,10.3,6.1c4.1,2.2,9.9,5.1,20.8,8c2,0.5,3.5,0.9,4.7,1.3
		c1.3,0.4,2.3,0.7,3.4,1.1c2.1,0.8,4.3,1.5,8.5,2.6c2.1,0.5,3.7,0.9,5,1.2c1.3,0.3,2.3,0.5,3.4,0.8c1,0.3,2.1,0.5,3.4,0.7
		c1.3,0.2,3,0.5,5.2,0.6c2.2,0.2,4,0,5.5-0.1c1.5-0.1,2.7-0.4,3.8-0.6c1.2-0.2,2.4-0.5,3.8-0.8c1.4-0.3,3.2-0.7,5.4-1.3
		c2.2-0.7,3.9-1.1,5.4-1.5c0.7-0.2,1.4-0.3,2-0.5c0.6-0.2,1.2-0.3,1.8-0.5c0.6-0.2,1.2-0.3,1.8-0.5c0.6-0.2,1.3-0.5,1.9-0.9
		c1.4-0.7,3-1.7,4.8-3.4c3.9-3.6,6.8-7.9,9-12c2.2-4.2,3.6-8.3,4.7-12.2c2-7.7,2.7-14.1,3.2-18.5c0.7-6.3,0.8-10.1,0.9-12.6
		c0.1-2.3,0.1-3.3,0.1-3.8c0-0.9,0,0.3-0.2-4.1c-0.3-4.4-0.8-5.5-1.2-6.6c-0.4-1.1-0.8-2.2-1.4-6.5c-0.6-4.3-0.9-4.5-1.2-4.8
		c-0.3-0.3-0.5-0.6-1.3-4.8c-0.7-4.2-1-9.4-2-15.1c-0.4-2.4-0.9-4.8-1.6-7.3c1.4,1.2,2,1.5,5.9,5.2c1.5,1.5,2.7,2.6,3.8,3.5
		c1,0.9,1.9,1.6,2.7,2.3c1.7,1.4,3.3,2.9,6.8,5.4c18.2,14.3,40.3,24,63.3,27.6c4.3,0.6,6.5,1,8.7,1.1c2.2,0.1,4.4,0.4,8.7,0.6
		c4.4,0,5.5,0.2,6.6,0.3c1.1,0.2,2.3,0.4,6.7,0c1-0.1,2.7-0.3,4.9-0.7c2.2-0.3,4.9-1,7.7-1.5c2.4-0.4,4-0.6,4.2-0.7
		c9.8-1.9,19.8-4.7,28.8-8.5c3.9-1.8,6.9-3.3,9.9-4.9c3-1.7,6-3.3,9.8-5.2c3.8-1.9,10.9-5.3,17.8-9c3.5-1.8,6.9-3.7,9.9-5.4
		c3.1-1.7,5.6-3.2,7.5-4.3c5.3-3.2,10.5-6.6,15.8-10.1c5.1-3.5,10.3-7,15.3-10.8c1.7-1.3,3.1-2.4,4.3-3.4c1.2-1.1,2.2-2.1,3.2-3
		c2-2,4-3.9,7.3-6.6c6-4.9,11.9-10,17.7-15.3c3.3-3.2,6.4-5.9,9.1-8.7c1.3-1.3,2.6-2.6,3.9-3.9c0.4-0.4,0.7-0.7,1.1-1.1
		c0.2-0.2,0.4-0.5,0.6-0.7c0.8-0.9,1.6-1.7,2.4-2.5c0.7-0.8,1.4-1.5,2.1-2.4l0.1-0.2l0,0.2l-0.1,0.5c-0.1,0.3-0.1,0.6-0.2,1
		c-0.1,0.6-0.2,1.3-0.4,2c-0.2,1.3-0.5,2.8-0.7,4.4c-0.6,4.1-1.6,10.1-2.5,16.2c-0.9,6.2-1.8,12.5-2.4,16.7
		c-1.2,8.3-3.1,25.2-3.5,33.7c-0.4,8.5-0.1,8.5,0.1,17.2c0.2,4.3,0.5,10.9,2.2,17.5c0.9,3.3,1.9,6.6,3.4,9.5c0.6,1.5,1.5,2.8,2.2,4
		c0.7,1.3,1.6,2.3,2.3,3.2c0.7,1,1.8,1.9,2.9,3.1c0.5,0.6,1.3,1.1,1.9,1.7c0.7,0.5,1.4,1.2,2.2,1.7c3.1,2.2,6.9,4,10.7,5.4
		c3.8,1.4,7.7,2.4,11.1,3.2c1.7,0.4,3.3,0.7,4.7,1c0.2,0,0.5,0.1,0.7,0.1c0.1,0,0.3,0,0.4,0.1c0.3,0,0.5,0.1,0.8,0.1
		c1.6,0.3,2.6,0.4,3.6,0.5c-0.5,0.9-1.1,1.6-2.4,3.5c-1,1.5-1.7,2.6-2.3,3.5c-0.7,1.1-1.4,2-1.9,3c-0.5,0.9-1.1,1.9-1.8,3
		c-0.7,1.2-1.5,2.6-2.4,4.5c-0.9,2-2.2,4.4-3.3,7.2c-0.5,1.4-1.2,2.8-1.7,4.4c-0.5,1.5-1,3.1-1.5,4.7c-1.8,6.4-2.5,13.1-2.5,17.5
		c0.1,2.2,0.2,3.9,0.3,5.3c0.2,1.4,0.4,2.5,0.6,3.6c0.1,0.6,0.2,1.1,0.3,1.7c0.2,0.6,0.3,1.2,0.5,1.9c0.4,1.4,0.8,3,1.7,5.1
		c0.4,1,0.8,2,1.1,2.8c0.4,0.8,0.8,1.5,1.1,2.1c0.3,0.6,0.6,1.2,0.9,1.7c0.3,0.5,0.6,1,0.9,1.5c0.6,1,1.2,1.9,2,3.1
		c0.9,1.1,1.9,2.5,3.4,4.1c1.6,1.6,2.6,2.5,3.2,3.2c0.7,0.6,1,0.8,1.3,1.1c0.3,0.3,0.6,0.6,1.3,1.1c0.3,0.3,0.8,0.6,1.3,1.1
		c0.6,0.4,1.3,0.9,2.2,1.6c1.8,1.3,3.3,2.1,4.5,2.8c1.2,0.7,2.2,1.3,3.2,1.7c1,0.5,2,1,3.2,1.6c1.2,0.6,2.8,1.1,4.8,2
		c4.1,1.4,6.2,2.2,8.3,2.7c1.1,0.3,2.1,0.6,3.4,1c1.3,0.3,2.9,0.6,5.1,1c2.1,0.4,3.8,0.5,5.1,0.7c1.3,0.2,2.4,0.3,3.5,0.4
		c2.2,0.1,4.3,0.4,8.7,0.5c2.8,0.1,5.5,0,8.1,0l0.8,0l0.4,0l0.8,0c0.5,0,1-0.1,1.5-0.1c0.9-0.1,1.8-0.2,2.7-0.3
		c0.8-0.1,1.6-0.2,2.4-0.3l0.2,0l0.1,0L585.9,297.1z"></path>
</g>
</svg>
