<!--?xml version="1.0" encoding="utf-8"?-->
<!-- Generator: Adobe Illustrator 25.2.3, SVG Export Plug-In . SVG Version: 6.00 Build 0)  -->
<svg version="1.1" id="_x31__1_" xmlns="http://www.w3.org/2000/svg" xmlns:xlink="http://www.w3.org/1999/xlink" x="0px" y="0px" viewBox="0 0 513.7 800" style="width: 1056px;" xml:space="preserve">
<style type="text/css">
	.stblack{fill:#000000;}
	.st0{fill:#FFFFFF;}
</style>
<g>
	<path class="st0" d="M325.5,679.6c15.2-2,43.7,26,43.7,26c-8.1-44.3,5.4-55.6,27-48.5c21.6,7.2,37.5,16.7,49.6,25.8
		c-13.6-13.4-34.8-58.3-28.6-76.3c6.2-18,44.5-5.8,44.5-5.8c-44.4-40.8-44.3-78.2-23.6-80c-8-20.4,12.8-37.4,13.9-34.6
		c1.1,2.8-23-17.8-20.7-66.7c2.3-48.9,21.6-45.1,21.6-45.1s-15-15.3-12-39.5c2.4-19.5,11.8-40.8,11.8-40.8s-20.6,8.7-23.5-10.3
		c-2.9-19,37.2-77.5,37.2-77.5s-24.9,17.5-39.8,7.8c-14.8-9.8,3.9-35.6,4.7-38.5c-3.4,0-23.6,0.3-30-20.6
		c-6.5-21.2,25.5-81.2,25.5-81.2s-47,49.9-60.8,42c-13.8-7.9-8.8-22.5-8.8-22.5s-15.5,15.1-33.8,12c-18.3-3.1-18.6-19.3-18.6-19.3
		s-15.7,14.3-25.5,10.9c-9.7-3.3-24.7-45.3-24.7-45.3s-14.2,27.2-22.3,37.2c-8.1,10-28.5,18.5-53.7,12.2
		c-25.2-6.4-23.3-7.6-32.6-20.9c0,0,2.3,26.7-13.7,32.3c-16,5.6-48-21.5-48-21.5s21.2,40.1,16.2,55.6c-5,15.6-33,10.3-33,10.3
		S83,176,83.2,198.9c0.2,23-56.3,22-53.4,22.8c2.9,0.8,37.5,41.2,44,57.1c6.5,15.9-23.5,27-20.6,26.9c2.9-0.1,13,6.5,16.6,25.4
		c4.7,24.8-32.6,38.5-32.6,38.5c36.2,14.4,57.9,26.7,25.7,51.3c25.5,13.1-4.5,39.1-20.6,47.9c43.7,11.2,46.1,88.6,18.1,120.6
		c32.8-4.7,5.7,36,2,38c36.6-14.5-2.6,73-11.8,79.1c61.8-43.7,89.9-33.3,82.9,19.8c30.8-34.5,35.4-29.9,46.8-11.7
		c25.1-27.4,45.6-22.8,60.4-14.8c14.8,8,25.1,46.7,25.1,46.7c13.7-49,17.1-46.7,33.1-55.9C314.9,681.7,325.5,679.6,325.5,679.6z"></path>
	<polygon points="399,648.8 399,648.8 399,648.8 	"></polygon>
	<path class="stblack" d="M408.9,603.7C408.9,603.7,408.9,603.7,408.9,603.7C408.9,603.7,408.9,603.7,408.9,603.7L408.9,603.7z"></path>
	<path class="stblack" d="M447,255.7c5.3-10.6,12-21.8,17.3-30.3c2.7-4.2,5-7.8,6.6-10.3c0.8-1.2,1.5-2.2,1.9-2.9c0.2-0.3,0.4-0.6,0.5-0.8l0.1-0.2
		l0-0.1l27.3-39.9l-39.6,27.8l0,0c0,0-0.2,0.1-0.6,0.4c-1.4,0.9-5.1,3.2-9.6,5.2c-2.2,1-4.7,1.9-7.1,2.5c-2.4,0.6-4.7,1-6.7,1
		c-1.3,0-2.4-0.1-3.4-0.4c-1-0.3-1.8-0.6-2.6-1.1c-0.8-0.6-1.1-0.9-1.3-1.4c-0.2-0.5-0.4-1.3-0.4-2.5c0-1.6,0.4-3.7,1.1-6.1
		c1.1-3.5,3-7.4,4.7-10.5c0.8-1.6,1.6-2.9,2.3-4.1c0.3-0.6,0.6-1.1,0.9-1.7c0.2-0.3,0.3-0.6,0.5-1c0.2-0.4,0.4-0.8,0.6-1.6l3.1-11.1
		h-11.4c0,0-0.2,0-0.4,0c-0.9,0-2.4,0-4.3-0.3c-2.9-0.4-6.4-1.4-9.4-3.4c-1.5-1-2.9-2.3-4.2-4c-1.3-1.7-2.4-3.9-3.3-6.8
		c-0.3-0.8-0.5-2.3-0.5-4.2c0-2.4,0.3-5.4,1-8.7c1.1-5.9,3.2-12.8,5.7-19.8c3.8-10.4,8.5-21,12.2-28.9c1.9-3.9,3.5-7.2,4.7-9.5
		c0.6-1.1,1-2,1.4-2.6c0.2-0.3,0.3-0.5,0.4-0.7l0.1-0.2l0,0L465.3,20l-44.9,47.7l-0.1,0.1c-1.1,1.1-11.1,11.7-22.7,21.7
		c-5.8,5-11.9,9.9-17.3,13.3c-2.7,1.7-5.1,3.1-7.1,3.9c-1.6,0.7-2.9,1-3.4,1c-1-0.6-1.8-1.3-2.3-1.9c-1-1.1-1.5-2.1-1.9-3.2
		c-0.4-1.1-0.5-2.3-0.5-3.4c0-1.1,0.1-2,0.3-2.7c0.1-0.3,0.1-0.5,0.2-0.7l0-0.1l11.9-34.7l-26.3,25.7h0c-0.2,0.2-3,2.8-7.2,5.2
		c-2.1,1.3-4.6,2.5-7.3,3.3c-2.6,0.9-5.4,1.4-8.2,1.4c-1.2,0-2.4-0.1-3.6-0.3l0,0c-3.4-0.6-5.4-1.6-6.8-2.7
		c-1.1-0.8-1.9-1.7-2.5-2.6c-0.9-1.4-1.5-2.9-1.7-4.1c-0.1-0.6-0.2-1-0.2-1.3l0-0.2l-0.3-19.2l-14.3,13l0,0
		c-0.2,0.1-3.1,2.8-6.8,5.1c-1.8,1.2-3.8,2.3-5.6,3c-1.8,0.8-3.3,1-4,1c0,0-0.1,0-0.1,0c-0.4-0.3-1-1.1-1.8-2c-1.7-2.3-3.9-6-6-10.1
		c-3.1-6.1-6.1-13.2-8.3-18.6c-1.1-2.7-2-5.1-2.6-6.7c-0.3-0.8-0.5-1.5-0.7-1.9c-0.1-0.2-0.1-0.4-0.2-0.5l-0.1-0.2l-6.7-18.8
		l-9.3,17.7l-0.2,0.3c-0.8,1.5-4.4,8.3-8.7,15.8c-2.2,3.8-4.5,7.7-6.7,11.2c-2.2,3.5-4.3,6.6-5.8,8.4c-1.9,2.4-5.7,5.3-10.8,7.5
		c-5.1,2.2-11.6,3.6-18.9,3.6c-4.7,0-9.7-0.6-15-1.9l0,0c-6.2-1.6-10.6-2.8-13.7-3.9c-2.3-0.8-3.8-1.5-4.8-2.1
		c-0.7-0.4-1.2-0.8-1.7-1.2c-0.7-0.7-1.5-1.6-2.7-3.3c-1.2-1.7-2.7-4-4.7-6.9l-18.7-26.7l2.8,32.5l0,0l0,0.2c0,0.4,0.1,1.3,0.1,2.6
		c0,3.2-0.4,8.5-1.8,12.8c-0.7,2.1-1.6,4-2.7,5.2c-1,1.3-2,2-3.5,2.5l0,0c-0.4,0.1-1,0.3-2,0.3c-1.1,0-2.7-0.2-4.5-0.7
		c-3.1-0.8-6.9-2.4-10.7-4.4c-5.7-3-11.4-6.8-15.5-9.9c-2.1-1.5-3.8-2.9-5-3.8c-0.6-0.5-1-0.8-1.3-1.1l-0.3-0.3l-0.1-0.1l0,0l0,0
		L55.6,54.9l21.1,39.9l0,0.1c0.4,0.8,4.5,8.8,8.5,18.4c2,4.8,3.9,10.1,5.3,15c1.4,4.9,2.2,9.5,2.2,12.5c0,1.4-0.2,2.5-0.3,3
		c-0.3,0.9-0.6,1.3-1.2,1.9c-0.9,0.8-2.6,1.7-5,2.3c-2.4,0.6-5.3,0.8-8.1,0.8c-2.5,0-4.7-0.2-6.3-0.4c-0.8-0.1-1.4-0.2-1.9-0.2
		c-0.2,0-0.4-0.1-0.5-0.1l-0.1,0l0,0l0,0l-23-4.3l14.6,18.4l0,0l0.1,0.2c0.8,1,4.2,5.7,7.4,12.5c3.2,6.7,6.1,15.5,6.1,24.3v0
		c0,0.5-0.1,0.9-0.2,1.2c-0.2,0.6-0.6,1.4-1.6,2.3c-0.9,0.8-2.2,1.8-3.9,2.6c-2.9,1.6-7,2.9-11.3,4c-6.5,1.6-13.6,2.4-19,2.9
		c-2.7,0.2-5,0.4-6.7,0.5c-0.9,0.1-1.6,0.1-2.2,0.2c-0.4,0-0.7,0.1-1.3,0.2c-0.2,0-0.4,0.1-0.6,0.1c-0.2,0-0.4,0.1-0.7,0.2
		c-0.5,0.2-1,0.3-2.2,1.1c-0.6,0.4-1.3,1-2.1,2.1c-0.4,0.6-0.8,1.3-1.1,2.2c-0.3,0.9-0.5,1.9-0.5,2.9c0,1.2,0.3,2.5,0.8,3.6
		c0.4,0.9,0.9,1.6,1.3,2.1c0.8,0.9,1.4,1.4,1.9,1.7c0.2,0.1,0.3,0.1,0.4,0.2c0.2,0.2,0.4,0.4,0.7,0.6c0.9,0.8,2.1,2.2,3.6,3.8
		c5.3,5.7,13.4,15.3,20.6,24.8c3.6,4.7,7,9.5,9.8,13.7c2.8,4.1,4.8,7.9,5.7,10c0.2,0.6,0.3,0.9,0.3,1.2c0,0.3-0.1,0.7-0.3,1.3
		c-0.4,1-1.4,2.5-3,4c-2.4,2.3-5.8,4.6-8.6,6.2c-1.4,0.8-2.7,1.5-3.7,2.1c-0.5,0.3-1,0.5-1.6,0.9c-0.3,0.2-0.6,0.4-1.2,0.9
		c-0.3,0.3-0.7,0.6-1.3,1.3c-0.3,0.4-0.7,0.9-1.1,1.7c-0.4,0.8-0.9,2.1-0.9,3.9c0,1,0.2,2.1,0.6,3.2c0.4,0.9,0.9,1.8,1.5,2.5
		c1,1.2,2.1,1.9,3,2.3c0.8,0.4,1.4,0.5,1.8,0.6l0.9,0.3c0.3,0.2,0.8,0.6,1.3,1.1c2.4,2.3,6.1,7.5,7.9,17.2c0.2,0.9,0.3,1.8,0.3,2.7
		c0,1.7-0.3,3.2-0.9,4.8c-1,2.7-3,5.6-5.6,8.2c-3.9,4-9.3,7.4-13.6,9.7c-2.1,1.1-4,2-5.3,2.6c-0.7,0.3-1.2,0.5-1.5,0.6l-0.4,0.1
		l-0.1,0l0,0v0l-21.4,7.9l21.2,8.4c5.9,2.3,11.3,4.6,16.1,6.8c7.1,3.3,12.8,6.6,16,9.4c1.6,1.4,2.7,2.6,3.2,3.5
		c0.5,0.9,0.6,1.4,0.6,1.9c0,0.4-0.1,0.9-0.4,1.7c-0.4,1.2-1.4,2.9-3.4,5.1c-1.9,2.2-4.8,4.8-8.6,7.7l-11,8.4l12.3,6.3
		c2.6,1.3,3.9,2.6,4.5,3.4c0.3,0.4,0.4,0.7,0.5,1c0.1,0.3,0.1,0.6,0.2,1.1c0,0.6-0.1,1.3-0.4,2.3c-0.5,1.7-1.7,3.9-3.5,6.2
		c-2.6,3.5-6.5,7.3-10.5,10.6c-4,3.3-8.3,6.1-11.6,7.9l-19.5,10.6l21.5,5.5c4.9,1.3,9,3.5,12.7,6.7c5.5,4.7,9.8,11.6,12.8,20.1
		c3,8.4,4.5,18.2,4.5,28.1c0,9.9-1.5,20-4.3,29c-2.8,9-7,16.8-11.9,22.5l-15.6,17.8l23.4-3.4c1.4-0.2,2.7-0.3,3.6-0.3
		c1.2,0,2,0.1,2.4,0.3c0,0.1,0,0.3,0,0.5c0,1.2-0.4,3.5-1.3,6c-1.4,3.8-3.7,8.1-5.8,11.4c-1.1,1.6-2.1,3-2.8,3.9
		c-0.4,0.4-0.6,0.8-0.7,0.9l0,0l2.3,2.4l-2.1-2.5l2.9,3.6l5.5,11.5c1.4-0.6,2.4-0.8,3.1-0.9c0,0.1,0,0.2,0.1,0.3
		c0.1,0.7,0.2,1.6,0.2,2.7c0,2-0.3,4.5-0.8,7.4c-0.9,5-2.6,11-4.7,17.1c-3.2,9.1-7.3,18.6-11,25.8c-1.9,3.6-3.7,6.7-5.1,8.9
		c-0.7,1.1-1.3,1.9-1.7,2.4c-0.2,0.2-0.3,0.4-0.4,0.4c0,0,0,0,0,0l1.5,1.6l8.7,12.6c0.1,0,0.1-0.1,0.2-0.1l0,0
		c12.7-9,23.9-15.5,33.2-19.7c9.3-4.2,16.8-6,22-5.9c2.9,0,5.1,0.5,6.7,1.3c1.2,0.6,2.2,1.3,3.1,2.3c1.4,1.5,2.7,3.7,3.7,7.1
		c1,3.3,1.5,7.7,1.5,13.1c0,4-0.3,8.5-1,13.5l-3.7,28.1l18.9-21.1c8.1-9.1,14.3-15.2,18.7-18.8c2.2-1.8,4-2.9,5.1-3.5
		c0.6-0.3,1-0.4,1.3-0.5c0.1,0,0.2-0.1,0.3-0.1l0.1,0c0.3,0.2,1.3,1,2.6,2.7c1.3,1.7,2.9,4.2,4.8,7.2l6.1,9.7l7.8-8.5
		c6.7-7.3,12.7-11.8,18.1-14.5c5.3-2.7,9.9-3.6,14.2-3.6c3.1,0,6.1,0.5,9,1.4c2.9,0.9,5.8,2.2,8.6,3.7l0,0c0.7,0.4,1.9,1.2,3.1,2.6
		c2.2,2.3,4.6,6,6.8,10.1c3.3,6.2,6.1,13.5,8,19.1c1,2.8,1.7,5.2,2.2,6.9c0.2,0.8,0.4,1.5,0.6,1.9c0.1,0.2,0.1,0.4,0.1,0.5l0,0.1
		l0,0l8.2,31.1l8.6-31c3.4-12.1,6.1-21,8.5-27.5c1.8-4.8,3.3-8.3,4.7-10.7c1-1.8,1.9-3.1,2.8-4.1c1.3-1.4,2.5-2.4,4.6-3.6
		c2-1.2,4.9-2.7,8.4-4.7c7.5-4.3,13.7-6.9,17.9-8.4c2.1-0.8,3.7-1.2,4.7-1.5c0.4-0.1,0.7-0.2,1-0.3l0.2,0c0.7,0,2,0.2,3.6,0.7
		c2.8,0.9,6.5,2.8,10.2,5.1c5.6,3.5,11.2,8,15.4,11.6c2.1,1.8,3.8,3.4,5,4.5c0.6,0.6,1.1,1,1.4,1.3l0.3,0.3l0.1,0.1l0,0l19.7,19.4
		l-5-27.2c-1.6-8.5-2.3-15.6-2.2-21.2c0-4.4,0.4-7.9,1.1-10.5c0.5-2,1.1-3.5,1.7-4.6c0.9-1.6,1.8-2.4,2.7-2.9c1-0.5,2.3-0.9,4.3-0.9
		c2.1,0,4.8,0.5,8.1,1.5l0,0c20.6,6.8,35.6,15.9,47.1,24.5l11.4-13.2c-2.2-2.2-5.3-6.2-8.4-11.2c-4.7-7.5-9.5-17.1-13-26.5
		c-1.8-4.7-3.2-9.3-4.2-13.6c-1-4.2-1.5-8.1-1.5-11.1c0-2.2,0.3-3.9,0.6-4.9l0,0c0.2-0.7,0.5-1,0.8-1.4c0.3-0.3,0.7-0.6,1.3-0.9
		c0.9-0.5,2.2-0.9,3.8-1.2c1.6-0.3,3.6-0.5,5.6-0.5c5,0,10.7,0.9,14.9,1.8c2.1,0.5,4,0.9,5.2,1.3c0.6,0.2,1.1,0.3,1.4,0.4l0.3,0.1
		l0.1,0l37.8,12l-29.2-26.8c-12.6-11.5-21.2-22.7-26.7-32.4c-5.4-9.7-7.5-18-7.5-23.5c0-1.9,0.2-3.4,0.6-4.6
		c0.5-1.8,1.2-2.7,1.9-3.3c0.7-0.6,1.4-1,3-1.1l11.6-1l-4.3-10.9c-0.9-2.3-1.2-4.3-1.2-6.3c0-2.4,0.5-4.7,1.4-6.9
		c1.3-3.3,3.4-6.3,5.3-8.2c0.4-0.4,0.7-0.7,1.1-1c0.5,0,1.1-0.1,1.7-0.3c0.8-0.2,1.7-0.6,2.5-1.2c1.3-0.9,2.4-2.3,3-3.7
		c0.6-1.4,0.7-2.6,0.7-3.5c0-1.7-0.4-2.6-0.6-3.3l0,0c-0.3-0.9-0.9-1.8-1.6-2.7c-0.9-1.1-2-1.9-3.1-2.4c0,0-0.1-0.1-0.1-0.1
		c-1.1-1.2-2.6-3.2-4.3-5.9c-5-8.3-11.2-23.2-11.2-46c0-2,0-4,0.1-6.1v0c0.5-10.1,1.7-17.6,3.2-23c1.1-4.1,2.4-7,3.6-9
		c1.8-3,3.2-4,4-4.5c0.4-0.2,0.7-0.3,0.9-0.4l0.1,0l27.5,5.7l-20.1-20.5l-0.1-0.1c-0.5-0.6-3.1-3.6-5.4-8.2
		c-2.3-4.7-4.5-11.1-4.5-18.8c0-1.7,0.1-3.4,0.3-5.3l0,0c1.1-8.8,3.9-18.5,6.4-26c1.3-3.7,2.5-6.9,3.3-9c0.4-1.1,0.8-2,1-2.5
		c0.1-0.3,0.2-0.5,0.3-0.6l0.1-0.2l0,0l8.9-20.1l-20.3,8.6l0,0c-0.2,0.1-1.2,0.4-2.4,0.7c-1.3,0.3-2.8,0.6-4.1,0.6
		c-0.8,0-1.5-0.1-2.1-0.2c-0.4-0.1-0.7-0.2-0.9-0.4c-0.3-0.2-0.5-0.4-0.9-0.9c-0.3-0.5-0.8-1.5-1.1-3.4c0-0.2-0.1-0.4-0.1-0.8
		c0-1.3,0.4-3.8,1.3-6.8C440.5,269.6,443.4,262.8,447,255.7z M420.5,285.1c0.5,3.3,1.5,6.3,2.9,9c1.1,2,2.5,3.8,4.1,5.2
		c2.4,2.2,5.1,3.6,7.7,4.4c1.4,0.4,2.7,0.7,4,0.9c-2.7,8.1-5.8,18.6-7.1,29.2l0,0c-0.3,2.6-0.5,5-0.5,7.4c0,12.1,3.7,21.8,7.3,28.5
		c0.1,0.2,0.2,0.4,0.3,0.5c-1.1,0.8-2.1,1.8-3.1,2.9c-3.6,3.8-6.7,9.2-9,16.6c-2.3,7.4-4,16.9-4.6,29.4v0c-0.1,2.4-0.2,4.7-0.2,6.9
		c0,22.1,5.2,38.6,10.8,49.7c1.8,3.6,3.6,6.5,5.4,9c-2.6,2.8-5.2,6.3-7.2,10.7c-2.1,4.5-3.7,9.9-3.7,15.9c0,1.2,0.1,2.5,0.2,3.8
		c-3.9,2.2-7,5.7-8.9,9.7c-2,4.2-2.9,8.9-2.9,13.8c0,9.6,3.3,20.4,9.7,32c3.2,5.7,7.1,11.5,12,17.5c-0.2,0-0.4,0-0.6,0
		c-5.1,0-10.5,0.6-15.7,2.8c-2.6,1.1-5.1,2.7-7.4,4.9c-2.2,2.2-4,5-5.1,8.1c-1.2,3.4-1.6,6.9-1.6,10.5c0,6.4,1.3,13.2,3.3,20.2
		c2.1,7.4,5.1,15,8.4,22.3c-6.1-2.9-12.8-5.5-20.1-8c-4.6-1.5-9.1-2.4-13.6-2.4c-3.9,0-7.8,0.7-11.4,2.4c-2.7,1.3-5.2,3.1-7.3,5.3
		c-3.1,3.4-5.3,7.6-6.6,12.4c-1.4,4.8-2,10.2-2,16.3c0,0.6,0,1.3,0.1,1.9c-4.3-3.2-9-6.4-13.9-9c-2.7-1.4-5.4-2.6-8.2-3.5
		c-2.8-0.9-5.8-1.5-9-1.5c-0.9,0-1.8,0.1-2.7,0.2l-0.3,0l-0.3,0.1c-0.8,0.2-12.3,2.6-29.2,12.2c-3.7,2.1-7,3.7-10.5,6
		c-2.6,1.7-5.2,3.9-7.6,6.7c-1.8,2.1-3.4,4.5-4.9,7.3c-2.2,4.1-4.3,9.2-6.5,15.7c-2-4.4-4.2-8.8-6.9-13c-1.7-2.7-3.6-5.3-5.8-7.6
		c-2.2-2.3-4.6-4.4-7.6-6l0,0c-3.5-1.9-7.4-3.7-11.7-5c-4.3-1.3-9.1-2.2-14.2-2.2c-7,0-14.5,1.6-22.1,5.5
		c-5.1,2.6-10.1,6.1-15.3,10.6c-0.7-0.9-1.5-1.8-2.3-2.7c-1.6-1.7-3.5-3.3-5.9-4.5c-2.3-1.2-5.2-2-8-2c-3.3,0-6.4,0.9-9.2,2.3
		c-4.3,2.1-8.3,5.2-13,9.5c-0.1,0.1-0.2,0.2-0.3,0.3c-0.3-2.9-0.7-5.7-1.4-8.3c-0.9-3.7-2.2-7.1-4-10.2c-2.6-4.7-6.4-8.6-11.1-11.2
		c-4.7-2.6-10.1-3.7-15.7-3.7c-8.8,0-18.4,2.7-29.1,7.5c-2.2,1-4.5,2.1-6.8,3.3c2.3-5.4,4.5-11.2,6.3-16.8c1.5-4.7,2.8-9.4,3.8-13.9
		c0.9-4.5,1.5-8.8,1.5-13c0-2.3-0.2-4.5-0.6-6.7c-0.4-1.7-0.9-3.3-1.7-5c-1.2-2.4-3.1-4.7-5.6-6.3c1.1-2.1,2.2-4.4,3.2-6.7
		c0.9-2.2,1.7-4.6,2.4-6.9c0.6-2.4,1-4.9,1-7.5c0-2.1-0.3-4.4-1.1-6.7c-0.6-1.7-1.5-3.4-2.8-5c-1.5-1.9-3.5-3.3-5.6-4.4
		c2.7-5,5-10.4,6.7-16.1c3.4-10.8,5.1-22.5,5.1-34.2c0-15.6-3-31.1-9.9-44.2c-3.4-6.5-7.8-12.4-13.4-17.3c-1.4-1.2-2.8-2.3-4.3-3.3
		c2.8-2.2,5.6-4.7,8.2-7.3c3.5-3.5,6.6-7.3,9.1-11.6c1.2-2.1,2.3-4.4,3.1-6.7c0.8-2.4,1.3-4.9,1.3-7.6c0-2.1-0.3-4.2-0.9-6.3
		c-0.8-2.6-2.2-5.1-4-7.3c2.1-2.1,3.9-4.1,5.4-6.2c1.6-2.3,3-4.7,3.9-7.2c0.9-2.5,1.5-5.2,1.5-7.8c0-2.6-0.5-5.1-1.4-7.4
		c-1.6-4-4.1-7.3-7.2-10.2c-4.5-4.2-10.2-7.6-16.6-10.9c-1.5-0.8-3.1-1.5-4.7-2.3c0.4-0.3,0.8-0.5,1.2-0.8
		c4.7-3.3,9.5-7.4,13.4-12.8c1.9-2.7,3.6-5.7,4.9-9c1.2-3.3,2-7,2-10.8c0-1.9-0.2-3.9-0.6-5.9c-1.9-10.3-5.7-17.8-9.8-23.1
		c2.7-1.9,5.5-4.2,8.1-7c1.8-2,3.4-4.2,4.7-6.9c1.3-2.7,2.1-5.8,2.1-9.2c0-2.6-0.5-5.3-1.6-7.9c-1.1-2.6-2.5-5.3-4.2-8.2
		c-3-5-6.9-10.6-11.1-16.2c-5.9-7.9-12.5-16-18.1-22.5c3.3-0.4,6.9-1,10.4-1.8c7.1-1.6,14.4-3.8,20.8-7.7c3.2-2,6.1-4.5,8.4-7.9
		c1.1-1.7,2.1-3.6,2.7-5.6c0.6-2.1,1-4.2,1-6.5v-0.2c-0.1-13-4.3-24.4-8.4-32.8c3.5-0.3,7.3-1,11-2.4c2.9-1.1,5.8-2.7,8.4-5.1
		c2.6-2.4,4.8-5.6,6-9.4l0,0c0.9-2.8,1.1-5.5,1.2-8.2c0-5.8-1.3-11.8-3-17.8c-0.8-2.8-1.7-5.5-2.7-8.2c1.9,1,3.8,1.9,5.8,2.8
		c2.7,1.2,5.5,2.2,8.4,3c2.9,0.7,5.8,1.2,8.9,1.2c2.5,0,5.1-0.3,7.8-1.2l0,0c4.8-1.7,8.6-4.7,11.3-8c2-2.5,3.5-5.3,4.6-8
		c0.5-1.2,0.9-2.4,1.3-3.6c0.5,0.3,1,0.7,1.6,1c2.7,1.5,5.6,2.6,9.2,3.8c3.6,1.2,7.8,2.3,13.2,3.7l0,0c6.7,1.7,13.2,2.5,19.3,2.5
		c9.7,0,18.4-1.9,25.8-5c7.3-3.1,13.3-7.4,17.5-12.6c2.4-3,4.9-6.8,7.5-10.9c2.3-3.7,4.6-7.6,6.7-11.3c0.6,1.5,1.3,3,2,4.5
		C258,82.2,260.9,88,264,93c1.6,2.5,3.2,4.8,5.1,6.8c0.9,1,1.9,2,3.1,2.9c1.2,0.9,2.6,1.8,4.3,2.4l0,0c2,0.7,4.1,1,6,1
		c4.1,0,7.7-1.1,10.9-2.5c2.5-1.1,4.8-2.3,6.9-3.6c0.7,1.1,1.4,2.2,2.3,3.3c2,2.4,4.6,4.7,7.8,6.6c3.2,1.9,7.1,3.2,11.4,4l0,0
		c2.2,0.4,4.4,0.5,6.5,0.5c5.1,0,9.9-1,14.1-2.4c2.5-0.8,4.7-1.8,6.8-2.9c0.3,0.8,0.6,1.6,1,2.4c1.1,2.2,2.5,4.4,4.4,6.4
		c1.9,2,4.2,3.8,6.9,5.4l0,0c2.6,1.5,5.4,2,7.9,2c4,0,7.4-1.1,10.8-2.6c5.9-2.6,11.8-6.5,17.7-10.9c1-0.8,2-1.5,3-2.3
		c-1.8,4.6-3.4,9.3-4.8,14c-1.3,4.3-2.4,8.6-3.2,12.7c-0.8,4.1-1.3,8.1-1.3,12c0,3.2,0.3,6.3,1.3,9.3c1.9,6.3,5,11.4,8.7,15.3
		c2.8,2.9,5.8,5.1,8.8,6.7c2.5,1.3,5,2.3,7.3,3c-1,2-2,4.3-2.9,6.6c-1.5,4.2-2.8,8.7-2.8,13.8c0,3.2,0.5,6.6,2.1,10
		c1.6,3.3,4.2,6.4,7.5,8.5l0,0c2.5,1.6,5.1,2.7,7.7,3.4c2.6,0.7,5.3,1,7.8,1c2.3,0,4.5-0.2,6.6-0.6c-1.3,2.1-2.6,4.3-3.9,6.6
		c-4.8,8.3-9.6,17.3-13.3,25.8c-1.9,4.3-3.4,8.4-4.6,12.4c-1.2,4-1.9,7.8-2,11.7C420.2,282.8,420.3,283.9,420.5,285.1z"></path>
</g>
</svg>
