<!--?xml version="1.0" encoding="utf-8"?-->
<!-- Generator: Adobe Illustrator 25.2.3, SVG Export Plug-In . SVG Version: 6.00 Build 0)  -->
<svg version="1.1" id="_x31__1_" xmlns="http://www.w3.org/2000/svg" xmlns:xlink="http://www.w3.org/1999/xlink" x="0px" y="0px" viewBox="0 0 447.451 800" style="width: 931px;" xml:space="preserve">
<style type="text/css">
	.st0{fill:#000001;}
	.st1{fill:#FFFFFF;}
</style>
<g>
	<path class="st0" d="M187.551,800c-25.099,0-50.631-5.514-75.89-16.389C23.488,745.648,6.206,600.958,1,479.146
		C-1.569,419.026-2.621,272.991,43,215.544c14.957-18.835,35.501-28.791,59.41-28.791c1.914,0,3.793,0.066,5.632,0.187
		c-0.725-21.634,1.86-50.938,11.121-79.027c14.901-45.199,43.575-77.933,82.923-94.661c15.527-6.601,32.846-10.762,51.475-12.368
		C260.366,0.297,267.065,0,273.471,0c58.951,0,102.211,24.853,128.578,73.869c21.539,40.041,32.09,96.04,33.203,176.231
		c0.425,30.526,2.252,65.967,4.185,103.489c7.347,142.572,14.921,289.547-35.429,352.139c9.164,13.246,21.101,26.893,35.654,40.747
		c7.063,6.724,9.589,16.933,6.474,26.174c-3.114,9.242-11.304,15.84-20.997,16.917c-3.987,0.443-8.191,0.667-12.495,0.667
		c-35.66,0-82.212-16.251-114.783-38.349C271.128,782.432,231.668,800,187.551,800z"></path>
	<path class="st1" d="M211.899,36.332c-76.123,32.363-81.614,126.186-78.126,159.818c0,0,1.279,12.333,2.56,24.67
		c-0.717,10.229-17.887,3.819-25.423-8.404c-14.537-1.958-33.587,0.234-48.271,18.725c-27.438,34.55-41.664,128.039-36.583,246.934
		c5.081,118.894,22.356,250.999,95.521,282.501c63.05,27.146,123.837,14.298,158.298-26.191c-4.388-14.8-0.511-26.431,13.087-19.008
		c25.251,26.941,88.105,53.852,129.407,49.263c-16.843-16.033-36.701-37.684-50.204-62.905
		c73.576-51.925,40.042-304.956,38.01-451.288c-2.032-146.331-36.583-234.739-154.46-224.578
		C238.995,27.313,224.482,30.982,211.899,36.332z"></path>
</g>
</svg>
