<?xml version='1.0' encoding='utf-8'?>
<svg xmlns="http://www.w3.org/2000/svg" version="1.1" id="_x33_" x="0px" y="0px" viewBox="0 0 404.9 800" xml:space="preserve" preserveAspectRatio="none"><path d="M353.3,105.2c-25.8-39.5-63.5-68.4-128.8-68.4c-65.3,0-101.8,28.9-127.6,68.4C71,144.7,71,226.8,71,400   c0,50.9,0.4,107,0.7,122.6c0.2,15.7-15.3,44-44.7,49.1c30.2,8.4,45.1,15.3,45.3,31c0.1,15.7,11.8,72.4,24.7,92   c25.8,39.5,62.3,68.4,127.6,68.4c65.3,0,101.8-28.9,127.6-68.4C378,655.3,378,573.2,378,400C378,226.8,379.2,144.7,353.3,105.2z" fill="#ffffff" /></svg>